<?xml version="1.0" encoding="UTF-8"?>
<svg xmlns="http://www.w3.org/2000/svg" xmlns:xlink="http://www.w3.org/1999/xlink" width="20px" height="20px" viewBox="0 0 20 20" version="1.1">
<g id="surface1">
<path style=" stroke:none;fill-rule:nonzero;fill:rgb(0%,0%,0%);fill-opacity:1;" d="M 8.117188 0.808594 C 4.46875 1.523438 1.527344 4.46875 0.8125 8.117188 C -0.265625 13.621094 3.492188 18.515625 8.589844 19.253906 C 9.332031 19.367188 10.003906 18.777344 10.003906 18.023438 L 10.003906 18 C 10.003906 17.382812 9.554688 16.871094 8.953125 16.777344 C 5.660156 16.273438 3.125 13.414062 3.125 9.972656 C 3.125 5.953125 6.585938 2.726562 10.679688 3.121094 C 14.257812 3.46875 16.875 6.6875 16.875 10.277344 L 16.875 10.910156 C 16.875 11.773438 16.175781 12.472656 15.3125 12.472656 C 14.453125 12.472656 13.75 11.773438 13.75 10.910156 L 13.75 6.21875 C 13.75 5.871094 13.472656 5.59375 13.125 5.59375 L 11.875 5.59375 C 11.589844 5.59375 11.359375 5.789062 11.285156 6.050781 C 10.316406 5.574219 9.167969 5.410156 7.925781 5.851562 C 6.410156 6.386719 5.261719 7.761719 5.042969 9.351562 C 4.671875 12.046875 6.753906 14.351562 9.375 14.351562 C 10.410156 14.351562 11.347656 13.980469 12.09375 13.378906 C 13.03125 14.601562 14.644531 15.28125 16.367188 14.84375 C 18.171875 14.425781 19.375 12.660156 19.339844 10.828125 L 19.339844 10.011719 C 19.339844 4.183594 14.109375 -0.363281 8.117188 0.808594 Z M 9.339844 11.886719 C 8.304688 11.886719 7.464844 11.042969 7.464844 10.007812 C 7.464844 8.976562 8.304688 8.132812 9.339844 8.132812 C 10.375 8.132812 11.214844 8.976562 11.214844 10.007812 C 11.214844 11.042969 10.410156 11.886719 9.339844 11.886719 Z M 9.339844 11.886719 "/>
</g>
</svg>
