<?xml version="1.0" encoding="UTF-8"?>
<svg xmlns="http://www.w3.org/2000/svg" xmlns:xlink="http://www.w3.org/1999/xlink" width="20px" height="18px" viewBox="0 0 20 18" version="1.1">
<g id="surface1">
<path style=" stroke:none;fill-rule:nonzero;fill:rgb(0%,0%,0%);fill-opacity:1;" d="M 9.484375 10.9375 C 8.371094 9.558594 5.800781 6.136719 5.800781 4.21875 C 5.800781 1.890625 7.699219 0 9.96875 0 C 12.300781 0 14.167969 1.890625 14.167969 4.21875 C 14.167969 6.136719 11.628906 9.558594 10.515625 10.9375 C 10.246094 11.304688 9.753906 11.304688 9.484375 10.9375 Z M 14.445312 17.683594 L 14.445312 7.046875 C 14.566406 6.804688 14.675781 6.5625 14.777344 6.320312 C 14.796875 6.277344 14.8125 6.238281 14.828125 6.191406 L 18.859375 4.558594 C 19.40625 4.339844 20 4.746094 20 5.34375 L 20 14.863281 C 20 15.207031 19.792969 15.519531 19.476562 15.648438 Z M 0.523438 6.585938 L 4.777344 4.863281 C 4.859375 5.359375 5.03125 5.855469 5.222656 6.320312 C 5.324219 6.5625 5.433594 6.804688 5.554688 7.046875 L 5.554688 15.882812 L 1.144531 17.671875 C 0.59375 17.863281 0 17.488281 0 16.890625 L 0 7.367188 C 0 7.023438 0.207031 6.683594 0.523438 6.585938 Z M 13.332031 17.730469 L 6.636719 15.800781 L 6.636719 8.964844 C 7.378906 10.066406 8.136719 11.058594 8.617188 11.640625 C 9.328125 12.570312 10.671875 12.570312 11.382812 11.640625 C 11.863281 11.058594 12.621094 10.066406 13.332031 8.964844 Z M 13.332031 17.730469 "/>
</g>
</svg>
